<?xml version="1.0" encoding="UTF-8" standalone="no"?>
<svg
   xmlns:shaper="http://www.shapertools.com/namespaces/shaper"
   xmlns:dc="http://purl.org/dc/elements/1.1/"
   xmlns:cc="http://creativecommons.org/ns#"
   xmlns:rdf="http://www.w3.org/1999/02/22-rdf-syntax-ns#"
   xmlns:svg="http://www.w3.org/2000/svg"
   xmlns="http://www.w3.org/2000/svg"
   xmlns:sodipodi="http://sodipodi.sourceforge.net/DTD/sodipodi-0.dtd"
   xmlns:inkscape="http://www.inkscape.org/namespaces/inkscape"
   enable-background="new 0 0 13 7.24"
   height="7.24cm"
   shaper:fusionaddin="version:1.5.0"
   version="1.1"
   viewBox="0 0 13 7.24"
   width="13cm"
   x="0cm"
   xml:space="preserve"
   y="0cm"
   id="svg869"
   sodipodi:docname="shield-front-outline.svg"
   inkscape:version="1.0.2-2 (e86c870879, 2021-01-15)"><metadata
     id="metadata875"><rdf:RDF><cc:Work
         rdf:about=""><dc:format>image/svg+xml</dc:format><dc:type
           rdf:resource="http://purl.org/dc/dcmitype/StillImage" /><dc:title></dc:title></cc:Work></rdf:RDF></metadata><defs
     id="defs873" /><sodipodi:namedview
     pagecolor="#ffffff"
     bordercolor="#666666"
     borderopacity="1"
     objecttolerance="10"
     gridtolerance="10"
     guidetolerance="10"
     inkscape:pageopacity="0"
     inkscape:pageshadow="2"
     inkscape:window-width="1320"
     inkscape:window-height="808"
     id="namedview871"
     showgrid="false"
     inkscape:zoom="1.2189546"
     inkscape:cx="252.60038"
     inkscape:cy="133.19087"
     inkscape:window-x="285"
     inkscape:window-y="46"
     inkscape:window-maximized="0"
     inkscape:current-layer="svg869" /><path
     d="M3.1,1.4 A0.16,0.16 90 0,0 3.1,1.08 L1.1,1.08 A0.16,0.16 270 0,0 1.1,1.4 L3.1,1.4z"
     fill="rgb(255,255,255)"
     shaper:cutDepth="0.003"
     shaper:pathType="interior"
     stroke="rgb(0,0,0)"
     transform="matrix(1,0,0,-1,0.1,7.24)"
     vector-effect="non-scaling-stroke"
     id="path861" /><path
     d="M4.975,6.815 A0.05,0.05 90 0,0 5.025,6.765 L5.025,6.515 A0.05,0.05 0 0,0 4.975,6.465 L4.125,6.465 A0.05,0.05 270 0,0 4.075,6.515 L4.075,6.765 A0.05,0.05 180 0,0 4.125,6.815 L4.975,6.815z"
     fill="rgb(255,255,255)"
     shaper:cutDepth="0.003"
     shaper:pathType="interior"
     stroke="rgb(0,0,0)"
     transform="matrix(1,0,0,-1,0.1,7.24)"
     vector-effect="non-scaling-stroke"
     id="path863" /><path
     d="M4.975,0.775 A0.05,0.05 90 0,0 5.025,0.725 L5.025,0.475 A0.05,0.05 0 0,0 4.975,0.425 L4.125,0.425 A0.05,0.05 270 0,0 4.075,0.475 L4.075,0.725 A0.05,0.05 180 0,0 4.125,0.775 L4.975,0.775z"
     fill="rgb(255,255,255)"
     shaper:cutDepth="0.003"
     shaper:pathType="interior"
     stroke="rgb(0,0,0)"
     transform="matrix(1,0,0,-1,0.1,7.24)"
     vector-effect="non-scaling-stroke"
     id="path865" /><path
     d="M3.1,6.16 A0.16,0.16 90 0,0 3.1,5.84 L1.1,5.84 A0.16,0.16 270 0,0 1.1,6.16 L3.1,6.16z"
     fill="rgb(255,255,255)"
     shaper:cutDepth="0.003"
     shaper:pathType="interior"
     stroke="rgb(0,0,0)"
     transform="matrix(1,0,0,-1,0.1,7.24)"
     vector-effect="non-scaling-stroke"
     id="path867" /></svg>
