<?xml version="1.0" encoding="utf-8"?>
<!-- Svg Vector Icons : http://www.onlinewebfonts.com/icon -->
<!DOCTYPE svg PUBLIC "-//W3C//DTD SVG 1.1//EN" "http://www.w3.org/Graphics/SVG/1.1/DTD/svg11.dtd">
<svg version="1.1" xmlns="http://www.w3.org/2000/svg" xmlns:xlink="http://www.w3.org/1999/xlink" x="0px" y="0px" viewBox="0 0 1000 1000" enable-background="new 0 0 1000 1000" xml:space="preserve">
<metadata> Svg Vector Icons : http://www.onlinewebfonts.com/icon </metadata>
<g><g transform="translate(0.000000,511.000000) scale(0.100000,-0.100000)"><path d="M4930,4985.9c-23-9.6-59.5-42.2-82.5-71l-40.3-51.8v-2697v-2697l-61.4-28.8C4644.2-603.7,4508-743.7,4462-853c-59.5-136.2-61.4-331.9-1.9-464.2c53.7-120.8,155.4-228.3,280.1-293.5c82.5-44.1,118.9-51.8,259-51.8c140,0,176.5,7.7,259,51.8c124.7,65.2,226.3,172.6,280.1,293.5c59.5,132.3,57.5,328-1.9,464.2c-46,109.3-182.2,249.4-282,293.5l-63.3,28.8v2698.9v2700.8l-51.8,57.5C5081.6,4987.8,4995.2,5012.7,4930,4985.9z"/><path d="M6890.4,2544c-32.6-34.5-383.6-621.5-776.9-1304.4C5353.9-80,5350.1-85.8,5434.5-179.8c80.6-92.1,191.8-101.7,278.1-28.8c46,40.3,1423.3,2409.2,1480.8,2549.3c36.4,84.4,19.2,159.2-49.9,216.7C7061.1,2628.5,6969,2622.7,6890.4,2544z"/><path d="M3527.8,1492.9c-59.5-24.9-107.4-107.4-105.5-182.2c1.9-46,117-262.8,406.7-763.4c222.5-385.6,425.8-723.2,450.8-750c36.4-40.3,65.2-49.9,132.3-49.9c71,0,92.1,9.6,134.3,59.5c95.9,113.2,88.2,128.5-354.9,897.7c-222.5,385.6-422,721.2-446.9,746.2C3696.6,1498.6,3591.1,1519.7,3527.8,1492.9z"/><path d="M1421.7,1111.2c-122.8-53.7-151.5-214.8-55.6-308.8C1421.7,750.6,3773.4-615.2,3900-668.9c84.4-34.5,159.2-19.2,218.7,44.1c53.7,57.5,61.4,168.8,13.4,239.8c-40.3,61.4-2526.2,1494.3-2610.6,1503.9C1488.8,1124.6,1442.8,1120.8,1421.7,1111.2z"/><path d="M7051.5,326.6c-163-94-491-283.9-728.9-420.1c-374-216.8-435.4-259-466.1-318.4c-69-136.2,17.3-274.3,165-270.5c67.1,3.8,195.7,71,788.4,414.3c425.8,245.5,723.1,429.7,748.1,462.3c88.2,117,17.3,274.3-134.3,293.5C7356.5,497.4,7318.1,480.1,7051.5,326.6z"/><path d="M230.5-899.1C153.8-914.4,98.1-995,100-1089c1.9-99.7,42.2-153.5,140-182.2c46-13.4,656-17.2,1853-13.4c1691.8,5.8,1785.8,7.7,1835.7,40.3c120.8,82.5,103.6,274.3-30.7,329.9c-57.5,24.9-324.2,28.8-1847.2,26.8C1072.6-889.5,251.6-895.2,230.5-899.1z"/><path d="M6096.3-914.4c-157.3-69.1-136.2-306.9,32.6-354.9c46-15.3,640.7-19.2,1856.8-15.3c1774.3,5.8,1787.7,5.8,1839.5,46c99.7,74.8,99.7,228.3,0,303.1c-51.8,40.3-65.2,40.3-1858.7,44.1C6431.9-887.6,6150-891.4,6096.3-914.4z"/><path d="M3919.1-1493.7c-69.1-19.2-1404.1-797.9-1459.7-849.7c-44.1-42.2-53.7-69.1-53.7-136.2c1.9-113.1,69.1-180.3,182.2-180.3c69.1,0,172.6,53.7,771.1,399c379.8,220.6,715.5,423.9,748.1,456.5C4247.1-1666.3,4109-1440,3919.1-1493.7z"/><path d="M5948.6-1497.5c-111.3-48-149.6-193.7-76.7-291.6c21.1-26.8,573.5-358.7,1294.8-774.9c1102.9-638.8,1266-727,1337-728.9c113.2,0,184.1,69,184.1,182.2c0,63.3-11.5,92.1-55.6,134.3c-80.6,76.7-2507.1,1473.2-2581.9,1484.7C6015.7-1486,5969.7-1488,5948.6-1497.5z"/><path d="M4375.7-1917.6c-23-1.9-61.4-25-90.2-47.9c-46-40.3-1402.2-2370.9-1475.1-2535.8c-59.5-138.1,3.8-253.2,151.5-272.4c63.3-7.7,84.4-1.9,134.3,44.1c34.5,32.6,372.1,596.6,780.7,1304.4c769.2,1333.1,765.3,1325.5,681,1432.9C4515.7-1940.6,4437-1906.1,4375.7-1917.6z"/><path d="M5451.8-1980.9c-95.9-113.2-88.3-128.5,354.9-897.7c222.5-385.5,422-721.2,445-744.3c78.7-86.3,230.2-74.8,293.5,23c67.1,101.7,49.9,143.9-377.9,886.2c-222.5,387.4-425.8,725.1-452.7,750c-32.6,30.7-69,42.2-130.4,42.2C5515.1-1921.5,5494-1931.1,5451.8-1980.9z"/><path d="M4903.2-2097.9c-95.9-51.8-95.9-53.7-92.1-1066.5l5.7-947.6l53.7-46c72.9-63.3,184.2-63.3,257,0l53.7,46v970.6c0,959.1,0,970.6-40.3,1008.9C5091.1-2082.6,4968.4-2065.3,4903.2-2097.9z"/></g></g>
</svg>