<?xml version="1.0" encoding="UTF-8" standalone="no"?>
<svg
   xmlns:dc="http://purl.org/dc/elements/1.1/"
   xmlns:cc="http://creativecommons.org/ns#"
   xmlns:rdf="http://www.w3.org/1999/02/22-rdf-syntax-ns#"
   xmlns:svg="http://www.w3.org/2000/svg"
   xmlns="http://www.w3.org/2000/svg"
   xmlns:sodipodi="http://sodipodi.sourceforge.net/DTD/sodipodi-0.dtd"
   xmlns:inkscape="http://www.inkscape.org/namespaces/inkscape"
   width="72.400002mm"
   height="130mm"
   viewBox="0 0 72.400002 130"
   version="1.1"
   id="svg78497"
   inkscape:version="1.0.2-2 (e86c870879, 2021-01-15)"
   sodipodi:docname="shield-front-outline.svg">
  <defs
     id="defs78491" />
  <sodipodi:namedview
     id="base"
     pagecolor="#ffffff"
     bordercolor="#666666"
     borderopacity="1.0"
     inkscape:pageopacity="0.0"
     inkscape:pageshadow="2"
     inkscape:zoom="1.4"
     inkscape:cx="272.97282"
     inkscape:cy="257.99751"
     inkscape:document-units="mm"
     inkscape:current-layer="layer1"
     inkscape:document-rotation="0"
     showgrid="false"
     inkscape:window-width="1431"
     inkscape:window-height="1030"
     inkscape:window-x="442"
     inkscape:window-y="0"
     inkscape:window-maximized="0" />
  <metadata
     id="metadata78494">
    <rdf:RDF>
      <cc:Work
         rdf:about="">
        <dc:format>image/svg+xml</dc:format>
        <dc:type
           rdf:resource="http://purl.org/dc/dcmitype/StillImage" />
        <dc:title></dc:title>
      </cc:Work>
    </rdf:RDF>
  </metadata>
  <g
     inkscape:label="Layer 1"
     inkscape:groupmode="layer"
     id="layer1">
    <g
       id="g79866"
       transform="rotate(90,41.65313,48.975442)">
      <g
         id="g2901"
         transform="matrix(0,-0.44930899,0.44930899,0,1.4077792,240.74128)"
         style="display:inline">
        <g
           id="g2315"
           transform="matrix(0,0.02478014,-0.02478014,0,430.01105,40.801042)"
           style="stroke-width:17.1508;stroke-miterlimit:4;stroke-dasharray:none">
          <g
             transform="matrix(0.1,0,0,-0.1,0,511)"
             id="g2313"
             style="stroke-width:171.508;stroke-miterlimit:4;stroke-dasharray:none">
            <path
               d="m 4930,4985.9 c -23,-9.6 -59.5,-42.2 -82.5,-71 l -40.3,-51.8 v -2697 -2697 l -61.4,-28.8 c -101.6,-44 -237.8,-184 -283.8,-293.3 -59.5,-136.2 -61.4,-331.9 -1.9,-464.2 53.7,-120.8 155.4,-228.3 280.1,-293.5 82.5,-44.1 118.9,-51.8 259,-51.8 140,0 176.5,7.7 259,51.8 124.7,65.2 226.3,172.6 280.1,293.5 59.5,132.3 57.5,328 -1.9,464.2 -46,109.3 -182.2,249.4 -282,293.5 l -63.3,28.8 V 2168.2 4869 l -51.8,57.5 c -57.7,61.3 -144.1,86.2 -209.3,59.4 z"
               id="path2289"
               style="stroke-width:171.508;stroke-miterlimit:4;stroke-dasharray:none" />
            <path
               d="M 6890.4,2544 C 6857.8,2509.5 6506.8,1922.5 6113.5,1239.6 5353.9,-80 5350.1,-85.8 5434.5,-179.8 c 80.6,-92.1 191.8,-101.7 278.1,-28.8 46,40.3 1423.3,2409.2 1480.8,2549.3 36.4,84.4 19.2,159.2 -49.9,216.7 -82.4,71.1 -174.5,65.3 -253.1,-13.4 z"
               id="path2291"
               style="stroke-width:171.508;stroke-miterlimit:4;stroke-dasharray:none" />
            <path
               d="m 3527.8,1492.9 c -59.5,-24.9 -107.4,-107.4 -105.5,-182.2 1.9,-46 117,-262.8 406.7,-763.4 222.5,-385.6 425.8,-723.2 450.8,-750 36.4,-40.3 65.2,-49.9 132.3,-49.9 71,0 92.1,9.6 134.3,59.5 95.9,113.2 88.2,128.5 -354.9,897.7 -222.5,385.6 -422,721.2 -446.9,746.2 -48,47.8 -153.5,68.9 -216.8,42.1 z"
               id="path2293"
               style="stroke-width:171.508;stroke-miterlimit:4;stroke-dasharray:none" />
            <path
               d="m 1421.7,1111.2 c -122.8,-53.7 -151.5,-214.8 -55.6,-308.8 55.6,-51.8 2407.3,-1417.6 2533.9,-1471.3 84.4,-34.5 159.2,-19.2 218.7,44.1 53.7,57.5 61.4,168.8 13.4,239.8 -40.3,61.4 -2526.2,1494.3 -2610.6,1503.9 -32.7,5.7 -78.7,1.9 -99.8,-7.7 z"
               id="path2295"
               style="stroke-width:171.508;stroke-miterlimit:4;stroke-dasharray:none" />
            <path
               d="m 7051.5,326.6 c -163,-94 -491,-283.9 -728.9,-420.1 -374,-216.8 -435.4,-259 -466.1,-318.4 -69,-136.2 17.3,-274.3 165,-270.5 67.1,3.8 195.7,71 788.4,414.3 425.8,245.5 723.1,429.7 748.1,462.3 88.2,117 17.3,274.3 -134.3,293.5 -67.2,9.7 -105.6,-7.6 -372.2,-161.1 z"
               id="path2297"
               style="stroke-width:171.508;stroke-miterlimit:4;stroke-dasharray:none" />
            <path
               d="M 230.5,-899.1 C 153.8,-914.4 98.1,-995 100,-1089 c 1.9,-99.7 42.2,-153.5 140,-182.2 46,-13.4 656,-17.2 1853,-13.4 1691.8,5.8 1785.8,7.7 1835.7,40.3 120.8,82.5 103.6,274.3 -30.7,329.9 -57.5,24.9 -324.2,28.8 -1847.2,26.8 -978.2,-1.9 -1799.2,-7.6 -1820.3,-11.5 z"
               id="path2299"
               style="stroke-width:171.508;stroke-miterlimit:4;stroke-dasharray:none" />
            <path
               d="m 6096.3,-914.4 c -157.3,-69.1 -136.2,-306.9 32.6,-354.9 46,-15.3 640.7,-19.2 1856.8,-15.3 1774.3,5.8 1787.7,5.8 1839.5,46 99.7,74.8 99.7,228.3 0,303.1 -51.8,40.3 -65.2,40.3 -1858.7,44.1 -1534.6,3.8 -1816.5,0 -1870.2,-23 z"
               id="path2301"
               style="stroke-width:171.508;stroke-miterlimit:4;stroke-dasharray:none" />
            <path
               d="m 3919.1,-1493.7 c -69.1,-19.2 -1404.1,-797.9 -1459.7,-849.7 -44.1,-42.2 -53.7,-69.1 -53.7,-136.2 1.9,-113.1 69.1,-180.3 182.2,-180.3 69.1,0 172.6,53.7 771.1,399 379.8,220.6 715.5,423.9 748.1,456.5 140,138.1 1.9,364.4 -188,310.7 z"
               id="path2303"
               style="stroke-width:171.508;stroke-miterlimit:4;stroke-dasharray:none" />
            <path
               d="m 5948.6,-1497.5 c -111.3,-48 -149.6,-193.7 -76.7,-291.6 21.1,-26.8 573.5,-358.7 1294.8,-774.9 1102.9,-638.8 1266,-727 1337,-728.9 113.2,0 184.1,69 184.1,182.2 0,63.3 -11.5,92.1 -55.6,134.3 -80.6,76.7 -2507.1,1473.2 -2581.9,1484.7 -34.6,5.7 -80.6,3.7 -101.7,-5.8 z"
               id="path2305"
               style="stroke-width:171.508;stroke-miterlimit:4;stroke-dasharray:none" />
            <path
               d="m 4375.7,-1917.6 c -23,-1.9 -61.4,-25 -90.2,-47.9 -46,-40.3 -1402.2,-2370.9 -1475.1,-2535.8 -59.5,-138.1 3.8,-253.2 151.5,-272.4 63.3,-7.7 84.4,-1.9 134.3,44.1 34.5,32.6 372.1,596.6 780.7,1304.4 769.2,1333.1 765.3,1325.5 681,1432.9 -42.2,51.7 -120.9,86.2 -182.2,74.7 z"
               id="path2307"
               style="stroke-width:171.508;stroke-miterlimit:4;stroke-dasharray:none" />
            <path
               d="m 5451.8,-1980.9 c -95.9,-113.2 -88.3,-128.5 354.9,-897.7 222.5,-385.5 422,-721.2 445,-744.3 78.7,-86.3 230.2,-74.8 293.5,23 67.1,101.7 49.9,143.9 -377.9,886.2 -222.5,387.4 -425.8,725.1 -452.7,750 -32.6,30.7 -69,42.2 -130.4,42.2 -69.1,0 -90.2,-9.6 -132.4,-59.4 z"
               id="path2309"
               style="stroke-width:171.508;stroke-miterlimit:4;stroke-dasharray:none" />
            <path
               d="m 4903.2,-2097.9 c -95.9,-51.8 -95.9,-53.7 -92.1,-1066.5 l 5.7,-947.6 53.7,-46 c 72.9,-63.3 184.2,-63.3 257,0 l 53.7,46 v 970.6 c 0,959.1 0,970.6 -40.3,1008.9 -49.8,49.9 -172.5,67.2 -237.7,34.6 z"
               id="path2311"
               style="stroke-width:171.508;stroke-miterlimit:4;stroke-dasharray:none" />
          </g>
        </g>
        <path
           sodipodi:type="star"
           style="fill:none;stroke:#000000;stroke-width:2.112;stroke-linecap:round;stroke-linejoin:round;stroke-miterlimit:4;stroke-dasharray:none"
           id="path2884"
           sodipodi:sides="3"
           sodipodi:cx="414.75903"
           sodipodi:cy="57.831326"
           sodipodi:r1="27.952066"
           sodipodi:r2="13.976033"
           sodipodi:arg1="0.9229849"
           sodipodi:arg2="1.9701825"
           inkscape:flatsided="true"
           inkscape:rounded="-3.469447e-18"
           inkscape:randomized="0"
           inkscape:transform-center-x="-4.5725166"
           inkscape:transform-center-y="-9.7362515"
           transform="rotate(-23,409.79263,57.134516)"
           d="M 431.6265,80.120482 387.02232,61.294405 425.62827,32.07909 Z" />
      </g>
      <g
         id="g3703"
         transform="matrix(0,-5.4405057,5.4405057,0,26.011298,98.471959)"
         style="display:inline">
        <g
           id="g3691"
           transform="matrix(0.9983399,0,0,0.9983399,0.00858575,0.00310245)">
          <g
             id="g3038"
             transform="matrix(0.00501266,0,0,0.00501266,5.1843428,1.8235512)"
             style="stroke:#000000;stroke-width:4.98737;stroke-miterlimit:4;stroke-dasharray:none;stroke-opacity:1">
            <g
               id="g3036"
               style="stroke:#000000;stroke-width:4.98737;stroke-miterlimit:4;stroke-dasharray:none;stroke-opacity:1">
              <path
                 style="fill:#010002;stroke:#000000;stroke-width:4.98737;stroke-miterlimit:4;stroke-dasharray:none;stroke-opacity:1"
                 d="M 195.031,166.074 109.439,17.834 c -2.226,-3.89 -6.403,-6.306 -10.89,-6.306 -4.477,0 -8.65,2.412 -10.894,6.292 L 1.68,166.747 c -2.24,3.876 -2.24,8.689 0,12.565 2.24,3.887 6.413,6.302 10.887,6.302 h 172.01 c 6.929,0 12.565,-5.644 12.565,-12.58 0.001,-2.587 -0.765,-5.078 -2.111,-6.96 z m -10.454,12.25 H 12.571 c -1.882,0 -3.643,-1.009 -4.585,-2.645 -0.945,-1.636 -0.948,-3.665 0,-5.3 L 93.961,21.456 c 0.941,-1.628 2.698,-2.645 4.588,-2.645 1.882,0 3.654,1.016 4.592,2.645 l 85.764,148.537 c 0.626,0.895 0.966,1.943 0.966,3.046 0,2.913 -2.38,5.285 -5.294,5.285 z"
                 id="path3030" />
              <polygon
                 style="fill:#010002;stroke:#000000;stroke-width:4.98737;stroke-miterlimit:4;stroke-dasharray:none;stroke-opacity:1"
                 points="104.486,67.255 89.709,67.255 91.681,134.938 102.504,134.938 "
                 id="polygon3032" />
              <path
                 style="fill:#010002;stroke:#000000;stroke-width:4.98737;stroke-miterlimit:4;stroke-dasharray:none;stroke-opacity:1"
                 d="m 97.096,144.637 c -5.146,0 -8.879,3.905 -8.879,9.28 0,5.39 3.733,9.294 8.879,9.294 5.229,0 8.886,-3.815 8.886,-9.294 0,-5.465 -3.654,-9.28 -8.886,-9.28 z"
                 id="path3034" />
            </g>
          </g>
          <text
             xml:space="preserve"
             style="font-style:normal;font-variant:normal;font-weight:normal;font-stretch:normal;font-size:1.21732px;line-height:1.25;font-family:'Franklin Gothic Demi';-inkscape-font-specification:'Franklin Gothic Demi, Normal';font-variant-ligatures:normal;font-variant-caps:normal;font-variant-numeric:normal;font-variant-east-asian:normal;fill:#000000;fill-opacity:1;stroke:#000000;stroke-width:0;stroke-miterlimit:4;stroke-dasharray:none;stroke-opacity:1"
             x="6.3324909"
             y="2.7233284"
             id="text3676"><tspan
               sodipodi:role="line"
               id="tspan3674"
               x="6.3324909"
               y="2.7233284"
               style="font-style:normal;font-variant:normal;font-weight:normal;font-stretch:normal;font-size:1.21732px;font-family:'Franklin Gothic Demi';-inkscape-font-specification:'Franklin Gothic Demi, Normal';font-variant-ligatures:normal;font-variant-caps:normal;font-variant-numeric:normal;font-variant-east-asian:normal;stroke:#000000;stroke-width:0;stroke-miterlimit:4;stroke-dasharray:none;stroke-opacity:1">CAUTION</tspan></text>
        </g>
        <text
           xml:space="preserve"
           style="font-style:normal;font-variant:normal;font-weight:normal;font-stretch:normal;font-size:1.10593px;line-height:1.25;font-family:'Franklin Gothic Medium Cond';-inkscape-font-specification:'Franklin Gothic Medium Cond, Normal';font-variant-ligatures:normal;font-variant-caps:normal;font-variant-numeric:normal;font-variant-east-asian:normal;fill:#000000;fill-opacity:1;stroke:none;stroke-width:0.0276484"
           x="4.8373275"
           y="3.761662"
           id="text3680"
           transform="scale(1.0537376,0.94900286)"><tspan
             sodipodi:role="line"
             id="tspan3678"
             x="4.8373275"
             y="3.761662"
             style="font-style:normal;font-variant:normal;font-weight:normal;font-stretch:normal;font-size:1.10593px;font-family:'Franklin Gothic Medium Cond';-inkscape-font-specification:'Franklin Gothic Medium Cond, Normal';font-variant-ligatures:normal;font-variant-caps:normal;font-variant-numeric:normal;font-variant-east-asian:normal;stroke-width:0.0276484">LASER IN USE</tspan></text>
      </g>
    </g>
    <g
       id="g3749"
       transform="matrix(3.6053323,0,0,3.6053323,39.247083,141.06296)"
       style="display:inline">
      <g
         id="g843"
         transform="matrix(0.1,0,0,0.1,-0.42400519,-9.8015183)">
        <text
           xml:space="preserve"
           style="font-style:normal;font-variant:normal;font-weight:normal;font-stretch:normal;font-size:16.9179px;line-height:1.25;font-family:'Copperplate Gothic Bold';-inkscape-font-specification:'Copperplate Gothic Bold, Normal';font-variant-ligatures:normal;font-variant-caps:normal;font-variant-numeric:normal;font-variant-east-asian:normal;fill:#000000;fill-opacity:1;stroke:none;stroke-width:0.264342"
           x="49.046375"
           y="52.868401"
           id="text2783"
           transform="scale(0.99908795,1.0009129)"><tspan
             sodipodi:role="line"
             id="tspan2781"
             x="49.046375"
             y="52.868401"
             style="font-style:normal;font-variant:normal;font-weight:normal;font-stretch:normal;font-size:16.9179px;font-family:'Copperplate Gothic Bold';-inkscape-font-specification:'Copperplate Gothic Bold, Normal';font-variant-ligatures:normal;font-variant-caps:normal;font-variant-numeric:normal;font-variant-east-asian:normal;stroke-width:0.264342">DLH</tspan></text>
        <text
           xml:space="preserve"
           style="font-style:normal;font-variant:normal;font-weight:normal;font-stretch:normal;font-size:7.82504px;line-height:1.25;font-family:'Copperplate Gothic Light';-inkscape-font-specification:'Copperplate Gothic Light, Normal';font-variant-ligatures:normal;font-variant-caps:normal;font-variant-numeric:normal;font-variant-east-asian:normal;fill:#000000;fill-opacity:1;stroke:none;stroke-width:0.266762"
           x="49.03503"
           y="60.102898"
           id="text2787"
           transform="scale(1.0082375,0.9918298)"><tspan
             sodipodi:role="line"
             id="tspan2785"
             x="49.03503"
             y="60.102898"
             style="font-style:normal;font-variant:normal;font-weight:normal;font-stretch:normal;font-size:7.82504px;font-family:'Copperplate Gothic Light';-inkscape-font-specification:'Copperplate Gothic Light, Normal';font-variant-ligatures:normal;font-variant-caps:normal;font-variant-numeric:normal;font-variant-east-asian:normal;stroke-width:0.266762">DESIGNS</tspan></text>
      </g>
      <rect
         style="fill:none;fill-opacity:1;stroke:#000000;stroke-width:0.070655;stroke-linecap:round;stroke-linejoin:round;stroke-miterlimit:4;stroke-dasharray:none"
         id="rect837"
         width="4.1954761"
         height="2.1375012"
         x="4.409936"
         y="-5.7960238"
         ry="0.25682706"
         rx="0.24372169" />
    </g>
    <text
       xml:space="preserve"
       style="font-style:normal;font-variant:normal;font-weight:normal;font-stretch:normal;font-size:2.62723px;line-height:1.25;font-family:'Agency FB';-inkscape-font-specification:'Agency FB, Normal';font-variant-ligatures:normal;font-variant-caps:normal;font-variant-numeric:normal;font-variant-east-asian:normal;display:inline;fill:#000000;fill-opacity:1;stroke:none;stroke-width:0.0656809"
       x="1.8601718"
       y="127.99262"
       id="text3707"><tspan
         sodipodi:role="line"
         x="1.8601718"
         y="127.99262"
         style="font-style:normal;font-variant:normal;font-weight:normal;font-stretch:normal;font-size:2.62723px;font-family:'Agency FB';-inkscape-font-specification:'Agency FB, Normal';font-variant-ligatures:normal;font-variant-caps:normal;font-variant-numeric:normal;font-variant-east-asian:normal;stroke-width:0.0656809"
         id="tspan3715">blue: 250-520 nm</tspan></text>
  </g>
</svg>
